<?xml version="1.0" encoding="UTF-8" standalone="no"?>
<svg
   version="1.1"
   x="0px"
   y="0px"
   viewBox="0 0 86.033859 78.003471"
   id="svg2"
   sodipodi:docname="check.svg"
   width="86.033859"
   height="78.003471"
   inkscape:version="1.4.2 (f4327f4, 2025-05-13)"
   xmlns:inkscape="http://www.inkscape.org/namespaces/inkscape"
   xmlns:sodipodi="http://sodipodi.sourceforge.net/DTD/sodipodi-0.dtd"
   xmlns="http://www.w3.org/2000/svg"
   xmlns:svg="http://www.w3.org/2000/svg">
  <defs
     id="defs2" />
  <sodipodi:namedview
     id="namedview2"
     pagecolor="#ffffff"
     bordercolor="#000000"
     borderopacity="0.25"
     inkscape:showpageshadow="2"
     inkscape:pageopacity="0.0"
     inkscape:pagecheckerboard="0"
     inkscape:deskcolor="#d1d1d1"
     inkscape:zoom="9.704"
     inkscape:cx="42.97197"
     inkscape:cy="51.473619"
     inkscape:window-width="2560"
     inkscape:window-height="1494"
     inkscape:window-x="-11"
     inkscape:window-y="-11"
     inkscape:window-maximized="1"
     inkscape:current-layer="svg2" />
  <g
     transform="translate(-6.9830711,-963.36045)"
     id="g1"
     style="fill:#000000;fill-opacity:1">
    <path
       style="color:#000000;text-indent:0;text-transform:none;direction:ltr;baseline-shift:baseline;enable-background:accumulate;fill:#000000;fill-opacity:1"
       d="m 44.97403,963.37302 c -2.840184,0.072 -5.693944,0.4522 -8.5,1.1562 -20.857032,5.2334 -33.5458917,26.48676 -28.3125,47.34378 5.23332,20.857 26.455468,33.5458 47.3125,28.3125 20.85703,-5.2333 33.5459,-26.4555 28.3125,-47.31252 a 3.0002999,3.0002999 0 1 0 -5.78125,1.4688 c 4.44412,17.71182 -6.28807,35.58702 -24,40.03122 -17.711856,4.4442 -35.6183,-6.2569 -40.0625,-23.9688 -4.444128,-17.71182 6.288072,-35.61832 24,-40.06238 9.500832,-2.384 19.55487,-0.4287 27.46875,5.34366 a 3.0002999,3.0002999 0 1 0 3.53125,-4.81246 c -7.01186,-5.1146 -15.44827,-7.7172 -23.96875,-7.5 z m 44.875,1.9375 a 3.0003,3.0003 0 0 0 -2.03125,0.9687 c -10.63829,11.13046 -27.84252,30.07256 -39.03125,41.87498 l -14.8125,-13.06242 a 3.0103986,3.0103986 0 1 0 -4,4.5 l 17,15.00002 a 3.0003,3.0003 0 0 0 4.15625,-0.1563 c 11.17675,-11.6935 29.95443,-32.44352 41,-43.99998 a 3.0003,3.0003 0 0 0 -2.28125,-5.125 z"
       fill="#000000"
       fill-opacity="1"
       stroke="none"
       marker="none"
       visibility="visible"
       display="inline"
       overflow="visible"
       id="path1" />
  </g>
</svg>
