<?xml version="1.0" encoding="UTF-8"?>
<svg width="1200pt" height="1200pt" version="1.1" viewBox="0 0 1200 1200" xmlns="http://www.w3.org/2000/svg">
 <path d="m418.12 262.5h93.75c20.711 0 37.5 20.711 37.5 37.5v600c0 20.711-16.789 37.5-37.5 37.5h-93.75c-20.711 0-37.5-20.711-37.5-37.5v-600c0-20.711 16.789-37.5 37.5-37.5z"/>
 <path d="m688.12 262.5h93.75c20.711 0 37.5 20.711 37.5 37.5v600c0 20.711-16.789 37.5-37.5 37.5h-93.75c-20.711 0-37.5-20.711-37.5-37.5v-600c0-20.711 16.789-37.5 37.5-37.5z"/>
</svg>
