<?xml version="1.0" encoding="UTF-8" standalone="no"?>
<svg
   width="806.09991pt"
   height="687.63452pt"
   version="1.1"
   viewBox="0 0 806.09991 687.63452"
   id="svg2"
   sodipodi:docname="mute.svg"
   inkscape:version="1.4 (86a8ad7, 2024-10-11)"
   xmlns:inkscape="http://www.inkscape.org/namespaces/inkscape"
   xmlns:sodipodi="http://sodipodi.sourceforge.net/DTD/sodipodi-0.dtd"
   xmlns="http://www.w3.org/2000/svg"
   xmlns:svg="http://www.w3.org/2000/svg">
  <defs
     id="defs2" />
  <sodipodi:namedview
     id="namedview2"
     pagecolor="#ffffff"
     bordercolor="#000000"
     borderopacity="0.25"
     inkscape:showpageshadow="2"
     inkscape:pageopacity="0.0"
     inkscape:pagecheckerboard="0"
     inkscape:deskcolor="#d1d1d1"
     inkscape:document-units="pt"
     showgrid="false"
     inkscape:zoom="0.758125"
     inkscape:cx="513.108"
     inkscape:cy="458.36768"
     inkscape:window-width="2560"
     inkscape:window-height="1494"
     inkscape:window-x="-11"
     inkscape:window-y="-11"
     inkscape:window-maximized="1"
     inkscape:current-layer="svg2" />
  <path
     d="M 332.2499,7.4507094 161.9999,163.45071 c -2.5742,2.4727 -4.6719,5.3945 -6.1875,8.625 h -123 c -8.7031,0 -17.047,3.457 -23.203,9.6094 -6.1523,6.1562 -9.6094,14.5 -9.6094,23.203 v 277.69 c 0,8.7031 3.457,17.047 9.6094,23.203 6.1562,6.1523 14.5,9.6094 23.203,9.6094 h 122.81 c 1.5156,3.2305 3.6133,6.1523 6.1875,8.625 l 170.25,156 c 5.6133,5.1094 12.992,7.8359 20.582,7.6055 7.5859,-0.23438 14.785,-3.4062 20.078,-8.8477 5.2891,-5.4414 8.2578,-12.73 8.2773,-20.32 V 29.013309 c -0.0625,-7.543 -3.0352,-14.77 -8.2969,-20.1719996 -5.2617,-5.402 -12.41,-8.56250003 -19.945,-8.82420003 -7.5391,-0.25781 -14.887,2.40620003 -20.508,7.43360003 z"
     id="path1"
     style="fill:#ffffff;fill-opacity:1" />
  <path
     d="m 806.0999,221.95071 -70.125,-62.438 -103.5,116.62 -103.5,-116.62 -70.125,62.438 111,124.69 -111,124.88 70.125,62.25 103.5,-116.62 103.5,116.62 70.125,-62.25 -111,-124.88 z"
     id="path2"
     style="fill:#ffffff;fill-opacity:1" />
</svg>
