<?xml version="1.0" encoding="UTF-8" standalone="no"?>
<svg
   width="438.75pt"
   height="675pt"
   version="1.1"
   viewBox="0 0 438.75 675"
   id="svg2"
   sodipodi:docname="pause.svg"
   inkscape:version="1.4 (86a8ad7, 2024-10-11)"
   xmlns:inkscape="http://www.inkscape.org/namespaces/inkscape"
   xmlns:sodipodi="http://sodipodi.sourceforge.net/DTD/sodipodi-0.dtd"
   xmlns="http://www.w3.org/2000/svg"
   xmlns:svg="http://www.w3.org/2000/svg">
  <defs
     id="defs2" />
  <sodipodi:namedview
     id="namedview2"
     pagecolor="#ffffff"
     bordercolor="#000000"
     borderopacity="0.25"
     inkscape:showpageshadow="2"
     inkscape:pageopacity="0.0"
     inkscape:pagecheckerboard="0"
     inkscape:deskcolor="#d1d1d1"
     inkscape:document-units="pt"
     showgrid="false"
     inkscape:zoom="0.758125"
     inkscape:cx="291.50866"
     inkscape:cy="450.45342"
     inkscape:window-width="2560"
     inkscape:window-height="1494"
     inkscape:window-x="-11"
     inkscape:window-y="-11"
     inkscape:window-maximized="1"
     inkscape:current-layer="svg2" />
  <path
     d="m 37.5,0 h 93.75 c 20.711,0 37.5,20.711 37.5,37.5 v 600 c 0,20.711 -16.789,37.5 -37.5,37.5 H 37.5 C 16.789,675 0,654.289 0,637.5 V 37.5 C 0,16.789 16.789,0 37.5,0 Z"
     id="path1"
     style="fill:#ffffff;fill-opacity:1" />
  <path
     d="m 307.5,0 h 93.75 c 20.711,0 37.5,20.711 37.5,37.5 v 600 c 0,20.711 -16.789,37.5 -37.5,37.5 H 307.5 C 286.789,675 270,654.289 270,637.5 V 37.5 C 270,16.789 286.789,0 307.5,0 Z"
     id="path2"
     style="fill:#ffffff;fill-opacity:1" />
</svg>
