<?xml version="1.0" encoding="UTF-8" standalone="no"?>
<svg
   xml:space="preserve"
   version="1.1"
   style="image-rendering:optimizeQuality;shape-rendering:geometricPrecision;text-rendering:geometricPrecision"
   viewBox="0 0 785 785"
   x="0px"
   y="0px"
   fill-rule="evenodd"
   clip-rule="evenodd"
   id="svg2"
   sodipodi:docname="plus.svg"
   width="785"
   height="785"
   inkscape:version="1.4 (86a8ad7, 2024-10-11)"
   xmlns:inkscape="http://www.inkscape.org/namespaces/inkscape"
   xmlns:sodipodi="http://sodipodi.sourceforge.net/DTD/sodipodi-0.dtd"
   xmlns="http://www.w3.org/2000/svg"
   xmlns:svg="http://www.w3.org/2000/svg"><sodipodi:namedview
     id="namedview2"
     pagecolor="#ffffff"
     bordercolor="#000000"
     borderopacity="0.25"
     inkscape:showpageshadow="2"
     inkscape:pageopacity="0.0"
     inkscape:pagecheckerboard="0"
     inkscape:deskcolor="#d1d1d1"
     inkscape:zoom="1.1456907"
     inkscape:cx="391.90333"
     inkscape:cy="497.95289"
     inkscape:window-width="2560"
     inkscape:window-height="1494"
     inkscape:window-x="-11"
     inkscape:window-y="-11"
     inkscape:window-maximized="1"
     inkscape:current-layer="svg2"
     showgrid="false" /><defs
     id="defs1"><style
       type="text/css"
       id="style1">
   
    .fil0 {fill:black}
   
  </style></defs><g
     id="g1"
     transform="translate(-31,-31)"
     style="fill:#ffffff;fill-opacity:1"><path
       class="fil0"
       d="M 31,476 V 370 c 0,-27 22,-49 50,-49 H 321 V 81 c 0,-28 22,-50 49,-50 h 106 c 28,0 50,22 50,50 v 240 h 240 c 27,0 50,22 50,49 v 106 c 0,28 -23,50 -50,50 H 526 v 240 c 0,27 -22,50 -50,50 H 370 c -27,0 -49,-23 -49,-50 V 526 H 81 C 53,526 31,504 31,476 Z"
       id="path1"
       style="fill:#ffffff;fill-opacity:1" /></g></svg>
