<?xml version="1.0" encoding="UTF-8" standalone="no"?>
<svg
   width="740.63pt"
   height="740.63pt"
   version="1.1"
   viewBox="0 0 740.63 740.63"
   id="svg1"
   sodipodi:docname="settings.svg"
   inkscape:version="1.4.2 (f4327f4, 2025-05-13)"
   xmlns:inkscape="http://www.inkscape.org/namespaces/inkscape"
   xmlns:sodipodi="http://sodipodi.sourceforge.net/DTD/sodipodi-0.dtd"
   xmlns="http://www.w3.org/2000/svg"
   xmlns:svg="http://www.w3.org/2000/svg">
  <defs
     id="defs1" />
  <sodipodi:namedview
     id="namedview1"
     pagecolor="#ffffff"
     bordercolor="#000000"
     borderopacity="0.25"
     inkscape:showpageshadow="2"
     inkscape:pageopacity="0.0"
     inkscape:pagecheckerboard="0"
     inkscape:deskcolor="#d1d1d1"
     inkscape:document-units="pt"
     inkscape:zoom="0.758125"
     inkscape:cx="493.32234"
     inkscape:cy="493.98186"
     inkscape:window-width="2560"
     inkscape:window-height="1494"
     inkscape:window-x="-11"
     inkscape:window-y="-11"
     inkscape:window-maximized="1"
     inkscape:current-layer="svg1" />
  <path
     d="m 740.63,441.565 v -142.5 H 660.568 C 653.3492,269.581 641.65,241.377 625.88,215.44 L 682.13,159.19 581.44,58.5 525.19,114.75 C 499.252,98.98 471.049,87.281 441.565,80.062 V 0 h -142.5 V 80.062 C 269.581,87.2808 241.377,98.98 215.44,114.75 L 159.19,58.5 58.5,159.19 114.75,215.44 C 98.98,241.378 87.281,269.581 80.062,299.065 H 0 v 142.5 h 80.062 c 7.2188,29.484 18.918,57.688 34.688,83.625 l -56.25,56.25 100.69,100.69 56.25,-56.25 c 25.938,15.77 54.141,27.469 83.625,34.688 v 80.062 h 142.5 v -80.062 c 29.484,-7.2188 57.688,-18.918 83.625,-34.688 l 56.25,56.25 100.69,-100.69 -56.25,-56.25 c 15.77,-25.938 27.469,-54.141 34.688,-83.625 z M 370.32,505.69 c -35.902,0 -70.336,-14.262 -95.723,-39.652 -25.391,-25.387 -39.652,-59.82 -39.652,-95.723 0,-35.903 14.262,-70.336 39.652,-95.723 25.387,-25.391 59.82,-39.652 95.723,-39.652 35.903,0 70.336,14.262 95.723,39.652 25.391,25.387 39.652,59.82 39.652,95.723 0,35.903 -14.262,70.336 -39.652,95.723 -25.387,25.391 -59.82,39.652 -95.723,39.652 z"
     id="path1"
     style="fill:#ffffff" />
</svg>
