<?xml version="1.0" encoding="UTF-8" standalone="no"?>
<svg
   width="660.76532pt"
   height="697.5708pt"
   version="1.1"
   viewBox="0 0 660.76532 697.5708"
   id="svg2"
   sodipodi:docname="sound.svg"
   inkscape:version="1.4.2 (f4327f4, 2025-05-13)"
   xmlns:inkscape="http://www.inkscape.org/namespaces/inkscape"
   xmlns:sodipodi="http://sodipodi.sourceforge.net/DTD/sodipodi-0.dtd"
   xmlns="http://www.w3.org/2000/svg"
   xmlns:svg="http://www.w3.org/2000/svg">
  <defs
     id="defs2" />
  <sodipodi:namedview
     id="namedview2"
     pagecolor="#ffffff"
     bordercolor="#000000"
     borderopacity="0.25"
     inkscape:showpageshadow="2"
     inkscape:pageopacity="0.0"
     inkscape:pagecheckerboard="0"
     inkscape:deskcolor="#d1d1d1"
     inkscape:document-units="pt"
     inkscape:zoom="0.758125"
     inkscape:cx="408.90354"
     inkscape:cy="464.9629"
     inkscape:window-width="2560"
     inkscape:window-height="1494"
     inkscape:window-x="-11"
     inkscape:window-y="-11"
     inkscape:window-maximized="1"
     inkscape:current-layer="svg2" />
  <path
     d="m 457.8853,156.90241 v 93.75 c 60.188,0 109.12,43.875 109.12,97.875 0,54 -48.938,97.875 -109.12,97.875 v 93.75 c 112.5,0 202.88,-86.062 202.88,-191.62 0,-105.558 -91.312,-191.62 -202.88,-191.62 z"
     id="path1"
     style="fill:#ffffff" />
  <path
     d="m 336.5653,7.8324124 -172.5,158.0599976 c -2.7227,2.5 -4.9492,5.4883 -6.5625,8.8125 h -139.69 c -4.6523,0.22656 -9.0508,2.1758 -12.344,5.4688 -3.2932,3.293 -5.2422,7.6914 -5.4688,12.344 v 312 c 0.22656,4.6523 2.1758,9.0508 5.4688,12.344 3.293,3.2932 7.6914,5.2422 12.344,5.4688 h 139.12 c 1.6133,3.3242 3.8398,6.3125 6.5625,8.8125 l 172.5,158.06 c 5.6562,5.4922 13.27,8.5 21.152,8.3633 7.8867,-0.14062 15.387,-3.4141 20.848,-9.1016 5.461,-5.6875 8.4297,-13.316 8.25,-21.199 V 29.765712 c 0.0352,-7.7305 -2.9492,-15.172 -8.3242,-20.7299996 -5.375,-5.5586 -12.707,-8.7969 -20.438,-9.0234 -7.7266,-0.22266 -15.238,2.582 -20.926,7.8164 z"
     id="path2"
     style="fill:#ffffff" />
</svg>
